<?xml version="1.0" encoding="utf-8"?>
<!-- Generator: Adobe Illustrator 22.1.0, SVG Export Plug-In . SVG Version: 6.00 Build 0)  -->
<svg version="1.1" id="Layer_1" xmlns="http://www.w3.org/2000/svg" xmlns:xlink="http://www.w3.org/1999/xlink" x="0px" y="0px"
	 viewBox="0 0 121.8 95.8" style="enable-background:new 0 0 121.8 95.8;" xml:space="preserve">
<style type="text/css">
	.st0{fill:#FFFFFF;}
</style>
<g transform="translate(0,-952.36218)">
	<path class="st0" d="M98.1,1002.6c-1,0-2.1,0.3-3.2,0.8l-18.7,9c-0.9-2.1-3-3.5-5.4-3.4l-10.8,0.3c-2.6,0-4.6-0.7-7.2-1.4
		c-2.5-0.7-5.5-1.5-9.7-1.5c-3.4,0-8,1-11.8,2.3v-2.3c0-0.3-0.1-0.5-0.2-0.8c-0.1-0.2-0.3-0.5-0.4-0.7c-0.2-0.2-0.4-0.3-0.6-0.4
		c-0.2-0.1-0.5-0.2-0.8-0.2H18.5c-0.3,0-0.5,0.1-0.8,0.2c-0.2,0.1-0.5,0.3-0.7,0.4s-0.3,0.4-0.4,0.7c-0.1,0.2-0.2,0.5-0.2,0.8v8.2
		v21.6c0,0.3,0.1,0.5,0.2,0.8c0.1,0.2,0.3,0.4,0.4,0.6s0.4,0.3,0.7,0.4c0.2,0.1,0.5,0.2,0.8,0.2h10.8c0.3,0,0.5-0.1,0.8-0.2
		c0.2-0.1,0.4-0.3,0.6-0.4s0.3-0.4,0.4-0.6c0.1-0.2,0.2-0.5,0.2-0.8v-2.5c13.2-2.3,21,1.6,32.9,1.6c2.5,0,5-1.2,8.2-2.9
		c3.2-1.7,6.9-3.9,10.6-6.3c7.4-4.8,15.1-10.3,19.1-13c1.4-0.9,2.2-2.4,2.3-3.8c0.2-1.4-0.2-2.8-1-4
		C102.3,1003.7,100.3,1002.6,98.1,1002.6L98.1,1002.6z M20.5,1008.4h1.8v25.8h-1.8v-19.6V1008.4z"/>
	<path class="st0" d="M46.7,968c-2.4,0-4.4,2-4.4,4.3v27.6c0,2.4,2,4.3,4.4,4.3h27.6c2.4,0,4.3-2,4.3-4.3v-27.6c0-2.4-2-4.3-4.3-4.3
		C74.3,968,46.7,968,46.7,968z M58,975.6H63c0.3,0,0.5,0.1,0.8,0.2c0.2,0.1,0.4,0.2,0.6,0.4c0.2,0.2,0.3,0.4,0.4,0.7
		c0.1,0.2,0.2,0.5,0.2,0.8v4.1h4.1c0.3,0,0.5,0.1,0.8,0.2c0.2,0.1,0.4,0.3,0.6,0.4c0.2,0.2,0.3,0.4,0.4,0.6c0.1,0.2,0.2,0.5,0.2,0.8
		v5.1c0,0.3-0.1,0.5-0.2,0.8c-0.1,0.2-0.3,0.5-0.4,0.7c-0.2,0.2-0.4,0.3-0.6,0.4c-0.2,0.1-0.5,0.2-0.8,0.2H65v4.1
		c0,0.3-0.1,0.5-0.2,0.8s-0.3,0.5-0.4,0.7c-0.2,0.2-0.4,0.3-0.6,0.4c-0.2,0.1-0.5,0.2-0.8,0.2H58c-0.3,0-0.5-0.1-0.8-0.2
		c-0.2-0.1-0.5-0.3-0.7-0.4c-0.2-0.2-0.3-0.4-0.4-0.7c-0.1-0.2-0.2-0.5-0.2-0.8v-4.1h-4.1c-0.3,0-0.5-0.1-0.8-0.2
		c-0.2-0.1-0.5-0.3-0.7-0.4c-0.2-0.2-0.3-0.4-0.4-0.7c-0.1-0.2-0.2-0.5-0.2-0.8v-5.1c0-0.3,0.1-0.5,0.2-0.8c0.1-0.2,0.3-0.4,0.4-0.6
		c0.2-0.2,0.4-0.3,0.7-0.4c0.2-0.1,0.5-0.2,0.8-0.2H56v-4.1c0-0.3,0.1-0.5,0.2-0.8c0.1-0.2,0.3-0.5,0.4-0.7c0.2-0.2,0.4-0.3,0.7-0.4
		S57.7,975.6,58,975.6z"/>
</g>
</svg>
