<?xml version="1.0" encoding="utf-8"?>
<!-- Generator: Adobe Illustrator 22.1.0, SVG Export Plug-In . SVG Version: 6.00 Build 0)  -->
<svg version="1.1" id="Layer_1" xmlns="http://www.w3.org/2000/svg" xmlns:xlink="http://www.w3.org/1999/xlink" x="0px" y="0px"
	 viewBox="0 0 121.8 95.8" style="enable-background:new 0 0 121.8 95.8;" xml:space="preserve">
<style type="text/css">
	.st0{fill:#FFFFFF;}
</style>
<circle class="st0" cx="46.6" cy="26.7" r="17.3"/>
<path class="st0" d="M64,44c-9.2,0-17.5,3.4-23.9,9.1c-1.7-2.7-4.6-4.4-8-4.4c-5.2,0-9.4,4.2-9.4,9.4c0,4.6,3.3,8.4,7.6,9.2
	c-1.5,3.9-2.3,8.2-2.3,12.7v1.2c0,0.7,0.6,1.1,1.2,1.1h20.3c0.6,0,1.2-0.3,1.2-0.9s-1.2-1.4-1.2-1.4v0h0l-6.1-3.8
	c-3.9-2.4-5-7.5-2.6-11.3c2.4-3.9,7.5-5,11.3-2.6l15.5,9.7c-0.5-0.1-1.1-0.2-1.6-0.2c-4.5,0-8.2,3.7-8.2,8.2c0,4.5,3.7,8.2,8.2,8.2
	h28.2c3.2,0,5.7-2.6,5.7-5.7v-2.5C99.9,60.1,83.8,44,64,44z M32.1,65.1c-0.3,0-0.6,0-0.9-0.1c-3.5-0.4-6.2-3.4-6.2-7
	c0-3.9,3.1-7,7-7c2.7,0,5,1.5,6.2,3.7c0.5,1,0.8,2.1,0.8,3.3C39.2,61.9,36,65.1,32.1,65.1z"/>
</svg>
