<?xml version="1.0" encoding="utf-8"?>
<!-- Generator: Adobe Illustrator 22.1.0, SVG Export Plug-In . SVG Version: 6.00 Build 0)  -->
<svg version="1.1" id="Layer_1" xmlns="http://www.w3.org/2000/svg" xmlns:xlink="http://www.w3.org/1999/xlink" x="0px" y="0px"
	 viewBox="0 0 121.8 95.8" style="enable-background:new 0 0 121.8 95.8;" xml:space="preserve">
<style type="text/css">
	.st0{fill:#FFFFFF;}
</style>
<path class="st0" d="M55.6,56c-4.3,0-7.8-3.5-7.8-7.8v-3.9H43l4.9-8.1v-2.3h-2.6v1.6l-4.9,8.2c-0.6,1-0.3,2.3,0.7,2.9
	c0.3,0.2,0.7,0.3,1.1,0.3h3.1v1.3c0,5.7,4.6,10.4,10.4,10.4c0.7,0,1.3,0.5,1.3,1.2c0,0,0,0,0,0V60c0,2.1-1.7,3.7-3.8,3.8H47
	c-5.1,0-7.4,0.4-9.5,9.3l2.5,0.6c1.7-7.3,2.7-7.3,7-7.3h6.2c3.5,0,6.3-2.8,6.4-6.4v-0.2C59.6,57.7,57.8,56,55.6,56
	C55.7,56,55.7,56,55.6,56z"/>
<path class="st0" d="M78,63.8h-4.2c-2.1,0-3.7-1.7-3.8-3.8v-2c2.5-2.6,3.9-6.1,3.9-9.7V33.9h-2.6v14.4c0,3.1-1.3,6.1-3.5,8.3
	l-0.4,0.4V60c0,3.5,2.8,6.3,6.4,6.4H78c4.3,0,5.3,0,7,7.1l2.5-0.6C85.4,64.1,83.1,63.8,78,63.8z"/>
<path class="st0" d="M59.6,24.8c-5,0-9.1,4.1-9.1,9.1h2.6c0-3.6,2.9-6.5,6.5-6.5s6.5,2.9,6.5,6.5h2.6C68.7,28.8,64.6,24.8,59.6,24.8
	z"/>
<path class="st0" d="M59.5,29.6c-2.4,0-4.2,2-4.2,4.3h2.6c0-0.9,0.6-1.7,1.5-1.7s1.7,0.6,1.7,1.5c0,0.1,0,0.1,0,0.2h2.6
	C63.7,31.5,61.8,29.6,59.5,29.6z"/>
<rect x="58.3" y="16.9" class="st0" width="2.6" height="5.2"/>
<rect x="67.7" y="22.9" transform="matrix(0.7071 -0.7071 0.7071 0.7071 3.5645 56.9689)" class="st0" width="5.7" height="2.6"/>
<rect x="47.3" y="21.3" transform="matrix(0.7071 -0.7072 0.7072 0.7071 -2.8636 41.4509)" class="st0" width="2.6" height="5.7"/>
</svg>
